<?xml version="1.0" encoding="UTF-8" standalone="no"?>
<!DOCTYPE svg PUBLIC "-//W3C//DTD SVG 1.1//EN"
 "http://www.w3.org/Graphics/SVG/1.1/DTD/svg11.dtd">
<!-- Generated by graphviz version 2.40.1 (20161225.0304)
 -->
<!-- Title: G Pages: 1 -->
<svg width="607pt" height="221pt"
 viewBox="0.00 0.00 607.10 221.17" xmlns="http://www.w3.org/2000/svg" xmlns:xlink="http://www.w3.org/1999/xlink">
<g id="graph0" class="graph" transform="scale(1 1) rotate(0) translate(4 217.1696)">
<title>G</title>
<polygon fill="#ffffff" stroke="transparent" points="-4,4 -4,-217.1696 603.0998,-217.1696 603.0998,4 -4,4"/>
<g id="clust1" class="cluster">
<title>cluster_0</title>
<polygon fill="none" stroke="#000000" points="91.4264,-128.1696 91.4264,-205.1696 464.4476,-205.1696 464.4476,-128.1696 91.4264,-128.1696"/>
<text text-anchor="middle" x="277.937" y="-188.5696" font-family="Times,serif" font-size="14.00" fill="#000000">prometheus/0</text>
</g>
<g id="clust2" class="cluster">
<title>cluster_1</title>
<polygon fill="none" stroke="#000000" points="91.4264,-13.1696 91.4264,-90.1696 464.4476,-90.1696 464.4476,-13.1696 91.4264,-13.1696"/>
<text text-anchor="middle" x="277.937" y="-73.5696" font-family="Times,serif" font-size="14.00" fill="#000000">prometheus/1</text>
</g>
<g id="clust3" class="cluster">
<title>cluster_2</title>
<polygon fill="none" stroke="#000000" points="484.4476,-32.1696 484.4476,-163.1696 591.0998,-163.1696 591.0998,-32.1696 484.4476,-32.1696"/>
<text text-anchor="middle" x="537.7737" y="-146.5696" font-family="Times,serif" font-size="14.00" fill="#000000">Aiven.io</text>
</g>
<!-- c0 -->
<g id="node1" class="node">
<title>c0</title>
<polygon fill="none" stroke="#000000" points="153.4264,-172.1696 99.4264,-172.1696 99.4264,-136.1696 153.4264,-136.1696 153.4264,-172.1696"/>
<text text-anchor="middle" x="126.4264" y="-149.9696" font-family="Times,serif" font-size="14.00" fill="#000000">caddy</text>
</g>
<!-- p0 -->
<g id="node2" class="node">
<title>p0</title>
<polygon fill="none" stroke="#000000" points="270.9004,-172.1696 189.268,-172.1696 189.268,-136.1696 270.9004,-136.1696 270.9004,-172.1696"/>
<text text-anchor="middle" x="230.0842" y="-149.9696" font-family="Times,serif" font-size="14.00" fill="#000000">prometheus</text>
</g>
<!-- c0&#45;&gt;p0 -->
<g id="edge1" class="edge">
<title>c0&#45;&gt;p0</title>
<path fill="none" stroke="#000000" d="M153.6613,-154.1696C161.508,-154.1696 170.3338,-154.1696 179.1261,-154.1696"/>
<polygon fill="#000000" stroke="#000000" points="179.3716,-157.6697 189.3716,-154.1696 179.3716,-150.6697 179.3716,-157.6697"/>
</g>
<!-- asd0 -->
<g id="node3" class="node">
<title>asd0</title>
<polygon fill="none" stroke="#000000" points="456.3007,-172.1696 306.8889,-172.1696 306.8889,-136.1696 456.3007,-136.1696 456.3007,-172.1696"/>
<text text-anchor="middle" x="381.5948" y="-149.9696" font-family="Times,serif" font-size="14.00" fill="#000000">aiven&#45;service&#45;discovery</text>
</g>
<!-- p0&#45;&gt;asd0 -->
<g id="edge2" class="edge">
<title>p0&#45;&gt;asd0</title>
<path fill="none" stroke="#000000" d="M271.0852,-154.1696C279.1081,-154.1696 287.795,-154.1696 296.652,-154.1696"/>
<polygon fill="#000000" stroke="#000000" points="296.6978,-157.6697 306.6978,-154.1696 296.6977,-150.6697 296.6978,-157.6697"/>
</g>
<!-- es -->
<g id="node7" class="node">
<title>es</title>
<polygon fill="none" stroke="#000000" points="581.2843,-76.1696 494.2631,-76.1696 494.2631,-40.1696 581.2843,-40.1696 581.2843,-76.1696"/>
<text text-anchor="middle" x="537.7737" y="-53.9696" font-family="Times,serif" font-size="14.00" fill="#000000">elasticsearch</text>
</g>
<!-- p0&#45;&gt;es -->
<g id="edge10" class="edge">
<title>p0&#45;&gt;es</title>
<path fill="none" stroke="#000000" d="M271.1399,-138.5835C282.5691,-134.5536 295.055,-130.435 306.742,-127.1696 375.7099,-107.8994 396.733,-117.4643 464.4476,-94.1696 467.7709,-93.0264 479.5143,-87.371 492.6589,-80.8692"/>
<polygon fill="#000000" stroke="#000000" points="494.4996,-83.8629 501.8966,-76.2777 491.3839,-77.5944 494.4996,-83.8629"/>
</g>
<!-- aivenapi -->
<g id="node8" class="node">
<title>aivenapi</title>
<polygon fill="none" stroke="#000000" points="582.9266,-130.1696 492.6208,-130.1696 492.6208,-94.1696 582.9266,-94.1696 582.9266,-130.1696"/>
<text text-anchor="middle" x="537.7737" y="-107.9696" font-family="Times,serif" font-size="14.00" fill="#000000">Aiven.io API</text>
</g>
<!-- asd0&#45;&gt;aivenapi -->
<g id="edge8" class="edge">
<title>asd0&#45;&gt;aivenapi</title>
<path fill="none" stroke="#000000" d="M448.7351,-136.1141C460.0022,-133.0841 471.5796,-129.9707 482.5037,-127.0329"/>
<polygon fill="#000000" stroke="#000000" points="483.5769,-130.3687 492.3249,-124.3918 481.759,-123.6089 483.5769,-130.3687"/>
</g>
<!-- c1 -->
<g id="node4" class="node">
<title>c1</title>
<polygon fill="none" stroke="#000000" points="153.4264,-57.1696 99.4264,-57.1696 99.4264,-21.1696 153.4264,-21.1696 153.4264,-57.1696"/>
<text text-anchor="middle" x="126.4264" y="-34.9696" font-family="Times,serif" font-size="14.00" fill="#000000">caddy</text>
</g>
<!-- c1&#45;&gt;c0 -->
<g id="edge7" class="edge">
<title>c1&#45;&gt;c0</title>
<path fill="none" stroke="#000000" d="M126.4264,-57.5876C126.4264,-80.3733 126.4264,-103.1591 126.4264,-125.9448"/>
<polygon fill="#000000" stroke="#000000" points="122.9265,-126.0604 126.4264,-136.0605 129.9265,-126.0605 122.9265,-126.0604"/>
</g>
<!-- p1 -->
<g id="node5" class="node">
<title>p1</title>
<polygon fill="none" stroke="#000000" points="270.9004,-57.1696 189.268,-57.1696 189.268,-21.1696 270.9004,-21.1696 270.9004,-57.1696"/>
<text text-anchor="middle" x="230.0842" y="-34.9696" font-family="Times,serif" font-size="14.00" fill="#000000">prometheus</text>
</g>
<!-- c1&#45;&gt;p1 -->
<g id="edge3" class="edge">
<title>c1&#45;&gt;p1</title>
<path fill="none" stroke="#000000" d="M153.6613,-39.1696C161.508,-39.1696 170.3338,-39.1696 179.1261,-39.1696"/>
<polygon fill="#000000" stroke="#000000" points="179.3716,-42.6697 189.3716,-39.1696 179.3716,-35.6697 179.3716,-42.6697"/>
</g>
<!-- asd1 -->
<g id="node6" class="node">
<title>asd1</title>
<polygon fill="none" stroke="#000000" points="456.3007,-57.1696 306.8889,-57.1696 306.8889,-21.1696 456.3007,-21.1696 456.3007,-57.1696"/>
<text text-anchor="middle" x="381.5948" y="-34.9696" font-family="Times,serif" font-size="14.00" fill="#000000">aiven&#45;service&#45;discovery</text>
</g>
<!-- p1&#45;&gt;asd1 -->
<g id="edge4" class="edge">
<title>p1&#45;&gt;asd1</title>
<path fill="none" stroke="#000000" d="M271.0852,-39.1696C279.1081,-39.1696 287.795,-39.1696 296.652,-39.1696"/>
<polygon fill="#000000" stroke="#000000" points="296.6978,-42.6697 306.6978,-39.1696 296.6977,-35.6697 296.6978,-42.6697"/>
</g>
<!-- p1&#45;&gt;es -->
<g id="edge11" class="edge">
<title>p1&#45;&gt;es</title>
<path fill="none" stroke="#000000" d="M270.7773,-21.9688C282.205,-17.9325 294.7809,-14.2145 306.742,-12.1696 375.831,-.3581 397.0886,7.2099 464.4476,-12.1696 479.9367,-16.6259 495.3174,-25.422 507.9621,-34.1395"/>
<polygon fill="#000000" stroke="#000000" points="506.087,-37.1023 516.2466,-40.1078 510.1787,-31.4226 506.087,-37.1023"/>
</g>
<!-- asd1&#45;&gt;aivenapi -->
<g id="edge9" class="edge">
<title>asd1&#45;&gt;aivenapi</title>
<path fill="none" stroke="#000000" d="M420.2008,-57.2145C441.2252,-67.0416 467.4313,-79.2907 489.7633,-89.7289"/>
<polygon fill="#000000" stroke="#000000" points="488.5292,-93.0155 499.0705,-94.0792 491.4933,-86.674 488.5292,-93.0155"/>
</g>
<!-- gorouter -->
<g id="node9" class="node">
<title>gorouter</title>
<polygon fill="none" stroke="#000000" points="63.641,-114.1696 -.2146,-114.1696 -.2146,-78.1696 63.641,-78.1696 63.641,-114.1696"/>
<text text-anchor="middle" x="31.7132" y="-91.9696" font-family="Times,serif" font-size="14.00" fill="#000000">gorouter</text>
</g>
<!-- gorouter&#45;&gt;c0 -->
<g id="edge5" class="edge">
<title>gorouter&#45;&gt;c0</title>
<path fill="none" stroke="#000000" d="M61.1619,-114.2032C70.4749,-119.9063 80.8715,-126.2729 90.5809,-132.2187"/>
<polygon fill="#000000" stroke="#000000" points="88.8978,-135.2921 99.2537,-137.5297 92.5535,-129.3225 88.8978,-135.2921"/>
</g>
<!-- gorouter&#45;&gt;c1 -->
<g id="edge6" class="edge">
<title>gorouter&#45;&gt;c1</title>
<path fill="none" stroke="#000000" d="M61.681,-78.1344C70.7986,-72.6474 80.9147,-66.5593 90.3888,-60.8576"/>
<polygon fill="#000000" stroke="#000000" points="92.4587,-63.697 99.222,-55.5417 88.8491,-57.6993 92.4587,-63.697"/>
</g>
</g>
</svg>
