<?xml version="1.0" encoding="UTF-8" standalone="no"?>
<!DOCTYPE svg PUBLIC "-//W3C//DTD SVG 1.1//EN"
 "http://www.w3.org/Graphics/SVG/1.1/DTD/svg11.dtd">
<!-- Generated by graphviz version 2.40.1 (20161225.0304)
 -->
<!-- Title: G Pages: 1 -->
<svg width="562pt" height="590pt"
 viewBox="0.00 0.00 562.00 590.40" xmlns="http://www.w3.org/2000/svg" xmlns:xlink="http://www.w3.org/1999/xlink">
<g id="graph0" class="graph" transform="scale(1 1) rotate(0) translate(4 586.4)">
<title>G</title>
<polygon fill="#ffffff" stroke="transparent" points="-4,4 -4,-586.4 558,-586.4 558,4 -4,4"/>
<g id="clust1" class="cluster">
<title>cluster_1</title>
<polygon fill="#d3d3d3" stroke="#d3d3d3" points="8,-176.8 8,-574.4 336,-574.4 336,-176.8 8,-176.8"/>
<text text-anchor="middle" x="172" y="-557.8" font-family="monospace" font-size="14.00" fill="#000000">bosh&#45;director</text>
</g>
<g id="clust2" class="cluster">
<title>cluster_2</title>
<polygon fill="#c0c0c0" stroke="#c0c0c0" points="150,-392.8 150,-541.6 292,-541.6 292,-392.8 150,-392.8"/>
<text text-anchor="middle" x="221" y="-525" font-family="monospace" font-size="14.00" fill="#000000">bosh&#45;auditor</text>
</g>
<g id="clust3" class="cluster">
<title>cluster_3</title>
<polygon fill="none" stroke="#000000" points="370,-8 370,-156.8 546,-156.8 546,-8 370,-8"/>
<text text-anchor="middle" x="458" y="-16.2" font-family="monospace" font-size="14.00" fill="#000000">Managed by Cyber</text>
</g>
<!-- uaa -->
<g id="node1" class="node">
<title>uaa</title>
<polygon fill="#ffffff" stroke="#ffffff" points="248,-292.8 194,-292.8 194,-256.8 248,-256.8 248,-292.8"/>
<text text-anchor="middle" x="221" y="-270.6" font-family="monospace" font-size="14.00" fill="#000000">UAA</text>
</g>
<!-- log_files -->
<g id="node4" class="node">
<title>log_files</title>
<polygon fill="#ffffff" stroke="#ffffff" points="208.1538,-220.8 141.8462,-220.8 141.8462,-184.8 208.1538,-184.8 208.1538,-220.8"/>
<text text-anchor="middle" x="175" y="-198.6" font-family="monospace" font-size="14.00" fill="#000000">Log files</text>
</g>
<!-- uaa&#45;&gt;log_files -->
<g id="edge7" class="edge">
<title>uaa&#45;&gt;log_files</title>
<path fill="none" stroke="#000000" d="M209.3923,-256.6314C204.2022,-248.5079 197.9768,-238.7637 192.2575,-229.8118"/>
<polygon fill="#000000" stroke="#000000" points="195.0974,-227.7559 186.764,-221.2133 189.1985,-231.5246 195.0974,-227.7559"/>
</g>
<!-- credhub -->
<g id="node2" class="node">
<title>credhub</title>
<polygon fill="#ffffff" stroke="#ffffff" points="155.8192,-292.8 88.1808,-292.8 88.1808,-256.8 155.8192,-256.8 155.8192,-292.8"/>
<text text-anchor="middle" x="122" y="-270.6" font-family="monospace" font-size="14.00" fill="#000000">CredHub</text>
</g>
<!-- credhub&#45;&gt;log_files -->
<g id="edge6" class="edge">
<title>credhub&#45;&gt;log_files</title>
<path fill="none" stroke="#000000" d="M135.3741,-256.6314C141.4162,-248.4232 148.6763,-238.5606 155.3221,-229.5323"/>
<polygon fill="#000000" stroke="#000000" points="158.3363,-231.3415 161.4458,-221.2133 152.6989,-227.1918 158.3363,-231.3415"/>
</g>
<!-- director -->
<g id="node3" class="node">
<title>director</title>
<polygon fill="#ffffff" stroke="#ffffff" points="252.1392,-364.8 189.8608,-364.8 189.8608,-328.8 252.1392,-328.8 252.1392,-364.8"/>
<text text-anchor="middle" x="221" y="-342.6" font-family="monospace" font-size="14.00" fill="#000000">Director</text>
</g>
<!-- director&#45;&gt;uaa -->
<g id="edge5" class="edge">
<title>director&#45;&gt;uaa</title>
<path fill="none" stroke="#000000" d="M221,-328.6314C221,-320.931 221,-311.7743 221,-303.2166"/>
<polygon fill="#000000" stroke="#000000" points="224.5001,-303.2132 221,-293.2133 217.5001,-303.2133 224.5001,-303.2132"/>
</g>
<!-- director&#45;&gt;log_files -->
<g id="edge8" class="edge">
<title>director&#45;&gt;log_files</title>
<path fill="none" stroke="#000000" d="M205.6025,-328.5193C198.1014,-318.5854 189.7049,-305.7159 185,-292.8 177.792,-273.0124 175.3893,-249.2903 174.7367,-231.1693"/>
<polygon fill="#000000" stroke="#000000" points="178.2317,-230.8852 174.5302,-220.958 171.2332,-231.0267 178.2317,-230.8852"/>
</g>
<!-- audit -->
<g id="node5" class="node">
<title>audit</title>
<polygon fill="#ffffff" stroke="#ffffff" points="70,-292.8 16,-292.8 16,-256.8 70,-256.8 70,-292.8"/>
<text text-anchor="middle" x="43" y="-270.6" font-family="monospace" font-size="14.00" fill="#000000">Audit</text>
</g>
<!-- audit&#45;&gt;log_files -->
<g id="edge9" class="edge">
<title>audit&#45;&gt;log_files</title>
<path fill="none" stroke="#000000" d="M70.0307,-260.056C88.1649,-250.1646 112.4141,-236.9378 133.0368,-225.689"/>
<polygon fill="#000000" stroke="#000000" points="134.8194,-228.7036 141.9224,-220.8423 131.4674,-222.5583 134.8194,-228.7036"/>
</g>
<!-- awslogs -->
<g id="node6" class="node">
<title>awslogs</title>
<polygon fill="#ffffff" stroke="#ffffff" points="327.6011,-292.8 266.3989,-292.8 266.3989,-256.8 327.6011,-256.8 327.6011,-292.8"/>
<text text-anchor="middle" x="297" y="-270.6" font-family="monospace" font-size="14.00" fill="#000000">awslogs</text>
</g>
<!-- awslogs&#45;&gt;log_files -->
<g id="edge11" class="edge">
<title>awslogs&#45;&gt;log_files</title>
<path fill="none" stroke="#000000" stroke-dasharray="5,2" d="M266.2142,-256.6314C250.6097,-247.4221 231.476,-236.1301 214.7697,-226.2706"/>
<polygon fill="#000000" stroke="#000000" points="216.1669,-223.0312 205.7759,-220.9628 212.6091,-229.0596 216.1669,-223.0312"/>
</g>
<!-- cloudwatch -->
<g id="node13" class="node">
<title>cloudwatch</title>
<polygon fill="none" stroke="#000000" points="465.866,-220.8 344.134,-220.8 344.134,-184.8 465.866,-184.8 465.866,-220.8"/>
<text text-anchor="middle" x="405" y="-198.6" font-family="monospace" font-size="14.00" fill="#000000">AWS CloudWatch</text>
</g>
<!-- awslogs&#45;&gt;cloudwatch -->
<g id="edge12" class="edge">
<title>awslogs&#45;&gt;cloudwatch</title>
<path fill="none" stroke="#000000" d="M324.253,-256.6314C337.9389,-247.5074 354.6915,-236.339 369.3827,-226.5449"/>
<polygon fill="#000000" stroke="#000000" points="371.3767,-229.4221 377.7558,-220.9628 367.4938,-223.5977 371.3767,-229.4221"/>
</g>
<!-- cursor -->
<g id="node7" class="node">
<title>cursor</title>
<polygon fill="#ffffff" stroke="#ffffff" points="212,-436.8 158,-436.8 158,-400.8 212,-400.8 212,-436.8"/>
<text text-anchor="middle" x="185" y="-414.6" font-family="monospace" font-size="14.00" fill="#000000">cursor</text>
</g>
<!-- fetcher -->
<g id="node8" class="node">
<title>fetcher</title>
<polygon fill="#ffffff" stroke="#ffffff" points="284.3558,-436.8 229.6442,-436.8 229.6442,-400.8 284.3558,-400.8 284.3558,-436.8"/>
<text text-anchor="middle" x="257" y="-414.6" font-family="monospace" font-size="14.00" fill="#000000">fetcher</text>
</g>
<!-- fetcher&#45;&gt;director -->
<g id="edge4" class="edge">
<title>fetcher&#45;&gt;director</title>
<path fill="none" stroke="#000000" stroke-dasharray="5,2" d="M247.9157,-400.6314C243.9385,-392.6771 239.1845,-383.169 234.7861,-374.3723"/>
<polygon fill="#000000" stroke="#000000" points="237.8093,-372.5923 230.2066,-365.2133 231.5483,-375.7228 237.8093,-372.5923"/>
</g>
<!-- shipper -->
<g id="node9" class="node">
<title>shipper</title>
<polygon fill="#ffffff" stroke="#ffffff" points="249.7108,-508.8 192.2892,-508.8 192.2892,-472.8 249.7108,-472.8 249.7108,-508.8"/>
<text text-anchor="middle" x="221" y="-486.6" font-family="monospace" font-size="14.00" fill="#000000">shipper</text>
</g>
<!-- shipper&#45;&gt;cursor -->
<g id="edge2" class="edge">
<title>shipper&#45;&gt;cursor</title>
<path fill="none" stroke="#000000" stroke-dasharray="5,2" d="M205.9633,-472.6314C201.2615,-464.7617 196.3524,-455.3712 192.3327,-446.6533"/>
<polygon fill="#000000" stroke="#000000" points="195.4261,-444.9899 188.2306,-437.2133 189.006,-447.7797 195.4261,-444.9899"/>
</g>
<!-- shipper&#45;&gt;cursor -->
<g id="edge3" class="edge">
<title>shipper&#45;&gt;cursor</title>
<path fill="none" stroke="#000000" d="M217.8681,-472.6314C214.632,-464.5925 210.0254,-454.9666 205.2172,-446.0918"/>
<polygon fill="#000000" stroke="#000000" points="208.1599,-444.1856 200.1826,-437.2133 202.0708,-447.6385 208.1599,-444.1856"/>
</g>
<!-- shipper&#45;&gt;fetcher -->
<g id="edge1" class="edge">
<title>shipper&#45;&gt;fetcher</title>
<path fill="none" stroke="#000000" stroke-dasharray="5,2" d="M230.0843,-472.6314C234.0615,-464.6771 238.8155,-455.169 243.2139,-446.3723"/>
<polygon fill="#000000" stroke="#000000" points="246.4517,-447.7228 247.7934,-437.2133 240.1907,-444.5923 246.4517,-447.7228"/>
</g>
<!-- hec -->
<g id="node10" class="node">
<title>hec</title>
<polygon fill="none" stroke="#000000" points="537.6692,-148.8 450.3308,-148.8 450.3308,-112.8 537.6692,-112.8 537.6692,-148.8"/>
<text text-anchor="middle" x="494" y="-126.6" font-family="monospace" font-size="14.00" fill="#000000">Splunk HEC</text>
</g>
<!-- shipper&#45;&gt;hec -->
<g id="edge10" class="edge">
<title>shipper&#45;&gt;hec</title>
<path fill="none" stroke="#000000" d="M249.6998,-488.966C319.7915,-482.7797 494,-456.3816 494,-346.8 494,-346.8 494,-346.8 494,-274.8 494,-234.676 494,-188.2631 494,-159.2177"/>
<polygon fill="#000000" stroke="#000000" points="497.5001,-158.9853 494,-148.9854 490.5001,-158.9854 497.5001,-158.9853"/>
</g>
<!-- splunk -->
<g id="node12" class="node">
<title>splunk</title>
<polygon fill="none" stroke="#000000" points="481.2292,-76.8 420.7708,-76.8 420.7708,-40.8 481.2292,-40.8 481.2292,-76.8"/>
<text text-anchor="middle" x="451" y="-56.4" font-family="monospace" font-size="8.00" fill="#000000">Splunk Cloud</text>
</g>
<!-- hec&#45;&gt;splunk -->
<g id="edge14" class="edge">
<title>hec&#45;&gt;splunk</title>
<path fill="none" stroke="#000000" d="M483.1493,-112.6314C478.2977,-104.5079 472.4783,-94.7637 467.132,-85.8118"/>
<polygon fill="#000000" stroke="#000000" points="470.1292,-84.0041 461.9968,-77.2133 464.1194,-87.5933 470.1292,-84.0041"/>
</g>
<!-- csls -->
<g id="node11" class="node">
<title>csls</title>
<polygon fill="none" stroke="#000000" points="432,-148.8 378,-148.8 378,-112.8 432,-112.8 432,-148.8"/>
<text text-anchor="middle" x="405" y="-126.6" font-family="monospace" font-size="14.00" fill="#000000">CSLS</text>
</g>
<!-- csls&#45;&gt;splunk -->
<g id="edge15" class="edge">
<title>csls&#45;&gt;splunk</title>
<path fill="none" stroke="#000000" d="M416.6077,-112.6314C421.7978,-104.5079 428.0232,-94.7637 433.7425,-85.8118"/>
<polygon fill="#000000" stroke="#000000" points="436.8015,-87.5246 439.236,-77.2133 430.9026,-83.7559 436.8015,-87.5246"/>
</g>
<!-- cloudwatch&#45;&gt;csls -->
<g id="edge13" class="edge">
<title>cloudwatch&#45;&gt;csls</title>
<path fill="none" stroke="#000000" d="M405,-184.6314C405,-176.931 405,-167.7743 405,-159.2166"/>
<polygon fill="#000000" stroke="#000000" points="408.5001,-159.2132 405,-149.2133 401.5001,-159.2133 408.5001,-159.2132"/>
</g>
</g>
</svg>