<?xml version="1.0" encoding="UTF-8" standalone="no"?>
<!DOCTYPE svg PUBLIC "-//W3C//DTD SVG 1.1//EN"
 "http://www.w3.org/Graphics/SVG/1.1/DTD/svg11.dtd">
<!-- Generated by graphviz version 2.40.1 (20161225.0304)
 -->
<!-- Title: G Pages: 1 -->
<svg width="686pt" height="421pt"
 viewBox="0.00 0.00 686.00 421.00" xmlns="http://www.w3.org/2000/svg" xmlns:xlink="http://www.w3.org/1999/xlink">
<g id="graph0" class="graph" transform="scale(1 1) rotate(0) translate(4 417)">
<title>G</title>
<polygon fill="#ffffff" stroke="transparent" points="-4,4 -4,-417 682,-417 682,4 -4,4"/>
<g id="clust1" class="cluster">
<title>cluster_1</title>
<polygon fill="#d3d3d3" stroke="#d3d3d3" points="8,-255 8,-405 190,-405 190,-255 8,-255"/>
<text text-anchor="middle" x="99" y="-389.8" font-family="monospace" font-size="14.00" fill="#000000">App (paas&#45;auditor)</text>
</g>
<g id="clust2" class="cluster">
<title>cluster_2</title>
<polygon fill="#d3d3d3" stroke="#d3d3d3" points="198,-183 198,-330 360,-330 360,-183 198,-183"/>
<text text-anchor="middle" x="279" y="-314.8" font-family="monospace" font-size="14.00" fill="#000000">VM (api)</text>
</g>
<g id="clust3" class="cluster">
<title>cluster_3</title>
<polygon fill="#d3d3d3" stroke="#d3d3d3" points="508,-183 508,-330 670,-330 670,-183 508,-183"/>
<text text-anchor="middle" x="589" y="-314.8" font-family="monospace" font-size="14.00" fill="#000000">VM (uaa)</text>
</g>
<g id="clust4" class="cluster">
<title>cluster_4</title>
<polygon fill="none" stroke="#000000" points="174,-8 174,-163 362,-163 362,-8 174,-8"/>
<text text-anchor="middle" x="268" y="-15.8" font-family="monospace" font-size="14.00" fill="#000000">Managed by Cyber</text>
</g>
<g id="clust5" class="cluster">
<title>cluster_5</title>
<polygon fill="none" stroke="#000000" points="441,-26 441,-111 625,-111 625,-26 441,-26"/>
<text text-anchor="middle" x="533" y="-95.8" font-family="monospace" font-size="14.00" fill="#000000">legend</text>
</g>
<!-- shipper -->
<g id="node1" class="node">
<title>shipper</title>
<polygon fill="#ffffff" stroke="#ffffff" points="90,-374 16,-374 16,-338 90,-338 90,-374"/>
<text text-anchor="middle" x="53" y="-352.3" font-family="monospace" font-size="14.00" fill="#000000">shipper</text>
</g>
<!-- db -->
<g id="node3" class="node">
<title>db</title>
<polygon fill="#ffffff" stroke="#ffffff" points="115.5,-299 16.5,-299 16.5,-263 115.5,-263 115.5,-299"/>
<text text-anchor="middle" x="66" y="-277.3" font-family="monospace" font-size="14.00" fill="#000000">auditor&#45;db</text>
</g>
<!-- shipper&#45;&gt;db -->
<g id="edge1" class="edge">
<title>shipper&#45;&gt;db</title>
<path fill="none" stroke="#000000" stroke-dasharray="5,2" d="M50.2687,-337.8446C50.9073,-329.2486 52.4932,-318.7852 54.5522,-309.1899"/>
<polygon fill="#000000" stroke="#000000" points="58.0077,-309.79 56.9496,-299.2482 51.2028,-308.149 58.0077,-309.79"/>
</g>
<!-- shipper&#45;&gt;db -->
<g id="edge2" class="edge">
<title>shipper&#45;&gt;db</title>
<path fill="none" stroke="#000000" d="M62.0252,-337.8446C64.3416,-329.3401 66.3645,-319.0076 67.6346,-309.4964"/>
<polygon fill="#000000" stroke="#000000" points="71.1473,-309.5622 68.7244,-299.2482 64.1865,-308.822 71.1473,-309.5622"/>
</g>
<!-- hec -->
<g id="node10" class="node">
<title>hec</title>
<polygon fill="none" stroke="#000000" points="281.5,-155 182.5,-155 182.5,-119 281.5,-119 281.5,-155"/>
<text text-anchor="middle" x="232" y="-133.3" font-family="monospace" font-size="14.00" fill="#000000">Splunk HEC</text>
</g>
<!-- shipper&#45;&gt;hec -->
<g id="edge11" class="edge">
<title>shipper&#45;&gt;hec</title>
<path fill="none" stroke="#000000" d="M90.0814,-341.2575C93.0902,-340.1323 96.0908,-339.0335 99,-338 109.9931,-334.0947 115.2143,-337.6753 124,-330 178.496,-282.3919 155.1073,-244.0222 194,-183 198.3844,-176.121 203.6672,-169.1213 208.8808,-162.7261"/>
<polygon fill="#000000" stroke="#000000" points="211.6177,-164.9096 215.3749,-155.0034 206.2601,-160.4044 211.6177,-164.9096"/>
</g>
<!-- fetcher -->
<g id="node2" class="node">
<title>fetcher</title>
<polygon fill="#ffffff" stroke="#ffffff" points="182,-374 108,-374 108,-338 182,-338 182,-374"/>
<text text-anchor="middle" x="145" y="-352.3" font-family="monospace" font-size="14.00" fill="#000000">fetcher</text>
</g>
<!-- fetcher&#45;&gt;db -->
<g id="edge3" class="edge">
<title>fetcher&#45;&gt;db</title>
<path fill="none" stroke="#000000" d="M125.8763,-337.8446C115.8586,-328.3341 103.4331,-316.5378 92.5022,-306.1603"/>
<polygon fill="#000000" stroke="#000000" points="94.8835,-303.595 85.2214,-299.2482 90.0639,-308.6716 94.8835,-303.595"/>
</g>
<!-- cc_api -->
<g id="node4" class="node">
<title>cc_api</title>
<polygon fill="#ffffff" stroke="#ffffff" points="260,-299 206,-299 206,-263 260,-263 260,-299"/>
<text text-anchor="middle" x="233" y="-277.3" font-family="monospace" font-size="14.00" fill="#000000">CC</text>
</g>
<!-- fetcher&#45;&gt;cc_api -->
<g id="edge10" class="edge">
<title>fetcher&#45;&gt;cc_api</title>
<path fill="none" stroke="#000000" stroke-dasharray="5,2" d="M182.1819,-338.4075C186.3348,-335.8289 190.3702,-333.0153 194,-330 201.7386,-323.5714 208.9782,-315.3883 215.0685,-307.559"/>
<polygon fill="#000000" stroke="#000000" points="218.0471,-309.4183 221.1952,-299.302 212.4256,-305.2472 218.0471,-309.4183"/>
</g>
<!-- cc_log_files -->
<g id="node6" class="node">
<title>cc_log_files</title>
<polygon fill="#ffffff" stroke="#ffffff" points="323.5,-227 232.5,-227 232.5,-191 323.5,-191 323.5,-227"/>
<text text-anchor="middle" x="278" y="-205.3" font-family="monospace" font-size="14.00" fill="#000000">Log files</text>
</g>
<!-- cc_api&#45;&gt;cc_log_files -->
<g id="edge5" class="edge">
<title>cc_api&#45;&gt;cc_log_files</title>
<path fill="none" stroke="#000000" d="M244.3554,-262.8314C249.4326,-254.7079 255.5227,-244.9637 261.1176,-236.0118"/>
<polygon fill="#000000" stroke="#000000" points="264.1597,-237.7483 266.4917,-227.4133 258.2237,-234.0383 264.1597,-237.7483"/>
</g>
<!-- cc_awslogs -->
<g id="node5" class="node">
<title>cc_awslogs</title>
<polygon fill="#ffffff" stroke="#ffffff" points="352,-299 278,-299 278,-263 352,-263 352,-299"/>
<text text-anchor="middle" x="315" y="-277.3" font-family="monospace" font-size="14.00" fill="#000000">awslogs</text>
</g>
<!-- cc_awslogs&#45;&gt;cc_log_files -->
<g id="edge4" class="edge">
<title>cc_awslogs&#45;&gt;cc_log_files</title>
<path fill="none" stroke="#000000" stroke-dasharray="5,2" d="M305.6633,-262.8314C301.5757,-254.8771 296.6896,-245.369 292.1691,-236.5723"/>
<polygon fill="#000000" stroke="#000000" points="295.1461,-234.7078 287.4624,-227.4133 288.9201,-237.9074 295.1461,-234.7078"/>
</g>
<!-- cloudwatch -->
<g id="node15" class="node">
<title>cloudwatch</title>
<polygon fill="none" stroke="#000000" points="500,-227 368,-227 368,-191 500,-191 500,-227"/>
<text text-anchor="middle" x="434" y="-205.3" font-family="monospace" font-size="14.00" fill="#000000">AWS CloudWatch</text>
</g>
<!-- cc_awslogs&#45;&gt;cloudwatch -->
<g id="edge15" class="edge">
<title>cc_awslogs&#45;&gt;cloudwatch</title>
<path fill="none" stroke="#000000" d="M345.0287,-262.8314C360.2496,-253.6221 378.9128,-242.3301 395.2083,-232.4706"/>
<polygon fill="#000000" stroke="#000000" points="397.2369,-235.3341 403.9809,-227.1628 393.6132,-229.345 397.2369,-235.3341"/>
</g>
<!-- uaa_api -->
<g id="node7" class="node">
<title>uaa_api</title>
<polygon fill="#ffffff" stroke="#ffffff" points="662,-299 608,-299 608,-263 662,-263 662,-299"/>
<text text-anchor="middle" x="635" y="-277.3" font-family="monospace" font-size="14.00" fill="#000000">UAA</text>
</g>
<!-- uaa_log_files -->
<g id="node9" class="node">
<title>uaa_log_files</title>
<polygon fill="#ffffff" stroke="#ffffff" points="635.5,-227 544.5,-227 544.5,-191 635.5,-191 635.5,-227"/>
<text text-anchor="middle" x="590" y="-205.3" font-family="monospace" font-size="14.00" fill="#000000">Log files</text>
</g>
<!-- uaa_api&#45;&gt;uaa_log_files -->
<g id="edge7" class="edge">
<title>uaa_api&#45;&gt;uaa_log_files</title>
<path fill="none" stroke="#000000" d="M623.6446,-262.8314C618.5674,-254.7079 612.4773,-244.9637 606.8824,-236.0118"/>
<polygon fill="#000000" stroke="#000000" points="609.7763,-234.0383 601.5083,-227.4133 603.8403,-237.7483 609.7763,-234.0383"/>
</g>
<!-- uaa_awslogs -->
<g id="node8" class="node">
<title>uaa_awslogs</title>
<polygon fill="#ffffff" stroke="#ffffff" points="590,-299 516,-299 516,-263 590,-263 590,-299"/>
<text text-anchor="middle" x="553" y="-277.3" font-family="monospace" font-size="14.00" fill="#000000">awslogs</text>
</g>
<!-- uaa_awslogs&#45;&gt;uaa_log_files -->
<g id="edge6" class="edge">
<title>uaa_awslogs&#45;&gt;uaa_log_files</title>
<path fill="none" stroke="#000000" stroke-dasharray="5,2" d="M562.3367,-262.8314C566.4243,-254.8771 571.3104,-245.369 575.8309,-236.5723"/>
<polygon fill="#000000" stroke="#000000" points="579.0799,-237.9074 580.5376,-227.4133 572.8539,-234.7078 579.0799,-237.9074"/>
</g>
<!-- uaa_awslogs&#45;&gt;cloudwatch -->
<g id="edge16" class="edge">
<title>uaa_awslogs&#45;&gt;cloudwatch</title>
<path fill="none" stroke="#000000" d="M522.9713,-262.8314C507.7504,-253.6221 489.0872,-242.3301 472.7917,-232.4706"/>
<polygon fill="#000000" stroke="#000000" points="474.3868,-229.345 464.0191,-227.1628 470.7631,-235.3341 474.3868,-229.345"/>
</g>
<!-- key2 -->
<g id="node13" class="node">
<title>key2</title>
<polygon fill="none" stroke="#000000" points="617,-80 563,-80 563,-34 617,-34 617,-80"/>
<text text-anchor="start" x="586" y="-62.8" font-family="monospace" font-size="14.00" fill="#000000"> </text>
<text text-anchor="start" x="586" y="-43.8" font-family="monospace" font-size="14.00" fill="#000000"> </text>
</g>
<!-- uaa_log_files&#45;&gt;key2 -->
<!-- splunk -->
<g id="node12" class="node">
<title>splunk</title>
<polygon fill="none" stroke="#000000" points="313,-75 233,-75 233,-39 313,-39 313,-75"/>
<text text-anchor="middle" x="273" y="-55.1" font-family="monospace" font-size="8.00" fill="#000000">Splunk Cloud</text>
</g>
<!-- hec&#45;&gt;splunk -->
<g id="edge12" class="edge">
<title>hec&#45;&gt;splunk</title>
<path fill="none" stroke="#000000" d="M241.3035,-118.8468C246.5456,-108.6183 253.1968,-95.6405 259.0513,-84.217"/>
<polygon fill="#000000" stroke="#000000" points="262.2871,-85.5771 263.7333,-75.0814 256.0576,-82.3844 262.2871,-85.5771"/>
</g>
<!-- csls -->
<g id="node11" class="node">
<title>csls</title>
<polygon fill="none" stroke="#000000" points="354,-155 300,-155 300,-119 354,-119 354,-155"/>
<text text-anchor="middle" x="327" y="-133.3" font-family="monospace" font-size="14.00" fill="#000000">CSLS</text>
</g>
<!-- csls&#45;&gt;splunk -->
<g id="edge13" class="edge">
<title>csls&#45;&gt;splunk</title>
<path fill="none" stroke="#000000" d="M314.7466,-118.8468C307.7042,-108.4137 298.7312,-95.1203 290.9101,-83.5335"/>
<polygon fill="#000000" stroke="#000000" points="293.7007,-81.4117 285.2049,-75.0814 287.8987,-85.3281 293.7007,-81.4117"/>
</g>
<!-- key -->
<g id="node14" class="node">
<title>key</title>
<polygon fill="none" stroke="#000000" points="544.5,-80 449.5,-80 449.5,-34 544.5,-34 544.5,-80"/>
<text text-anchor="start" x="460" y="-62.8" font-family="monospace" font-size="14.00" fill="#000000">read</text>
<text text-anchor="start" x="460" y="-43.8" font-family="monospace" font-size="14.00" fill="#000000">write/use</text>
</g>
<!-- key&#45;&gt;key2 -->
<g id="edge8" class="edge">
<title>key:e&#45;&gt;key2:w</title>
<path fill="none" stroke="#000000" stroke-dasharray="5,2" d="M537,-67C553.9722,-67 560.602,-67 573.6958,-67"/>
<polygon fill="#000000" stroke="#000000" points="574,-70.5001 584,-67 574,-63.5001 574,-70.5001"/>
</g>
<!-- key&#45;&gt;key2 -->
<g id="edge9" class="edge">
<title>key:e&#45;&gt;key2:w</title>
<path fill="none" stroke="#000000" d="M537,-47C553.9722,-47 560.602,-47 573.6958,-47"/>
<polygon fill="#000000" stroke="#000000" points="574,-50.5001 584,-47 574,-43.5001 574,-50.5001"/>
</g>
<!-- cloudwatch&#45;&gt;csls -->
<g id="edge14" class="edge">
<title>cloudwatch&#45;&gt;csls</title>
<path fill="none" stroke="#000000" d="M406.9994,-190.8314C393.5669,-181.7927 377.1527,-170.7476 362.6961,-161.0198"/>
<polygon fill="#000000" stroke="#000000" points="364.2425,-157.8418 353.992,-155.1628 360.3346,-163.6494 364.2425,-157.8418"/>
</g>
</g>
</svg>
