<?xml version="1.0" encoding="UTF-8" standalone="no"?>
<!DOCTYPE svg PUBLIC "-//W3C//DTD SVG 1.1//EN"
 "http://www.w3.org/Graphics/SVG/1.1/DTD/svg11.dtd">
<!-- Generated by graphviz version 2.40.1 (20161225.0304)
 -->
<!-- Title: G Pages: 1 -->
<svg width="600pt" height="593pt"
 viewBox="0.00 0.00 600.00 593.00" xmlns="http://www.w3.org/2000/svg" xmlns:xlink="http://www.w3.org/1999/xlink">
<g id="graph0" class="graph" transform="scale(1 1) rotate(0) translate(4 589)">
<title>G</title>
<polygon fill="#ffffff" stroke="transparent" points="-4,4 -4,-589 596,-589 596,4 -4,4"/>
<g id="clust1" class="cluster">
<title>cluster_1</title>
<polygon fill="#d3d3d3" stroke="#d3d3d3" points="8,-183 8,-577 358,-577 358,-183 8,-183"/>
<text text-anchor="middle" x="183" y="-561.8" font-family="monospace" font-size="14.00" fill="#000000">bosh&#45;director</text>
</g>
<g id="clust2" class="cluster">
<title>cluster_2</title>
<polygon fill="#c0c0c0" stroke="#c0c0c0" points="139,-399 139,-546 313,-546 313,-399 139,-399"/>
<text text-anchor="middle" x="226" y="-530.8" font-family="monospace" font-size="14.00" fill="#000000">bosh&#45;auditor</text>
</g>
<g id="clust3" class="cluster">
<title>cluster_3</title>
<polygon fill="none" stroke="#000000" points="396,-8 396,-163 584,-163 584,-8 396,-8"/>
<text text-anchor="middle" x="490" y="-15.8" font-family="monospace" font-size="14.00" fill="#000000">Managed by Cyber</text>
</g>
<g id="clust4" class="cluster">
<title>cluster_5</title>
<polygon fill="none" stroke="#000000" points="36,-26 36,-111 220,-111 220,-26 36,-26"/>
<text text-anchor="middle" x="128" y="-95.8" font-family="monospace" font-size="14.00" fill="#000000">legend</text>
</g>
<!-- uaa -->
<g id="node1" class="node">
<title>uaa</title>
<polygon fill="#ffffff" stroke="#ffffff" points="258,-299 204,-299 204,-263 258,-263 258,-299"/>
<text text-anchor="middle" x="231" y="-277.3" font-family="monospace" font-size="14.00" fill="#000000">UAA</text>
</g>
<!-- log_files -->
<g id="node4" class="node">
<title>log_files</title>
<polygon fill="#ffffff" stroke="#ffffff" points="230.5,-227 139.5,-227 139.5,-191 230.5,-191 230.5,-227"/>
<text text-anchor="middle" x="185" y="-205.3" font-family="monospace" font-size="14.00" fill="#000000">Log files</text>
</g>
<!-- uaa&#45;&gt;log_files -->
<g id="edge9" class="edge">
<title>uaa&#45;&gt;log_files</title>
<path fill="none" stroke="#000000" d="M219.3923,-262.8314C214.2022,-254.7079 207.9768,-244.9637 202.2575,-236.0118"/>
<polygon fill="#000000" stroke="#000000" points="205.0974,-233.9559 196.764,-227.4133 199.1985,-237.7246 205.0974,-233.9559"/>
</g>
<!-- credhub -->
<g id="node2" class="node">
<title>credhub</title>
<polygon fill="#ffffff" stroke="#ffffff" points="166,-299 92,-299 92,-263 166,-263 166,-299"/>
<text text-anchor="middle" x="129" y="-277.3" font-family="monospace" font-size="14.00" fill="#000000">CredHub</text>
</g>
<!-- credhub&#45;&gt;log_files -->
<g id="edge8" class="edge">
<title>credhub&#45;&gt;log_files</title>
<path fill="none" stroke="#000000" d="M143.1312,-262.8314C149.5811,-254.5386 157.3445,-244.557 164.4252,-235.4533"/>
<polygon fill="#000000" stroke="#000000" points="167.3019,-237.4556 170.6786,-227.4133 161.7764,-233.158 167.3019,-237.4556"/>
</g>
<!-- director -->
<g id="node3" class="node">
<title>director</title>
<polygon fill="#ffffff" stroke="#ffffff" points="272.5,-371 189.5,-371 189.5,-335 272.5,-335 272.5,-371"/>
<text text-anchor="middle" x="231" y="-349.3" font-family="monospace" font-size="14.00" fill="#000000">Director</text>
</g>
<!-- director&#45;&gt;uaa -->
<g id="edge7" class="edge">
<title>director&#45;&gt;uaa</title>
<path fill="none" stroke="#000000" d="M231,-334.8314C231,-327.131 231,-317.9743 231,-309.4166"/>
<polygon fill="#000000" stroke="#000000" points="234.5001,-309.4132 231,-299.4133 227.5001,-309.4133 234.5001,-309.4132"/>
</g>
<!-- director&#45;&gt;log_files -->
<g id="edge10" class="edge">
<title>director&#45;&gt;log_files</title>
<path fill="none" stroke="#000000" d="M215.6025,-334.7193C208.1014,-324.7854 199.7049,-311.9159 195,-299 187.792,-279.2124 185.3893,-255.4903 184.7367,-237.3693"/>
<polygon fill="#000000" stroke="#000000" points="188.2317,-237.0852 184.5302,-227.158 181.2332,-237.2267 188.2317,-237.0852"/>
</g>
<!-- key2 -->
<g id="node13" class="node">
<title>key2</title>
<polygon fill="none" stroke="#000000" points="212,-80 158,-80 158,-34 212,-34 212,-80"/>
<text text-anchor="start" x="181" y="-62.8" font-family="monospace" font-size="14.00" fill="#000000"> </text>
<text text-anchor="start" x="181" y="-43.8" font-family="monospace" font-size="14.00" fill="#000000"> </text>
</g>
<!-- log_files&#45;&gt;key2 -->
<!-- audit -->
<g id="node5" class="node">
<title>audit</title>
<polygon fill="#ffffff" stroke="#ffffff" points="74,-299 16,-299 16,-263 74,-263 74,-299"/>
<text text-anchor="middle" x="45" y="-277.3" font-family="monospace" font-size="14.00" fill="#000000">Audit</text>
</g>
<!-- audit&#45;&gt;log_files -->
<g id="edge11" class="edge">
<title>audit&#45;&gt;log_files</title>
<path fill="none" stroke="#000000" d="M74.0081,-266.0816C93.2801,-256.1702 118.9526,-242.9672 140.7529,-231.7557"/>
<polygon fill="#000000" stroke="#000000" points="142.5367,-234.7741 149.8288,-227.088 139.3352,-228.5491 142.5367,-234.7741"/>
</g>
<!-- awslogs -->
<g id="node6" class="node">
<title>awslogs</title>
<polygon fill="#ffffff" stroke="#ffffff" points="350,-299 276,-299 276,-263 350,-263 350,-299"/>
<text text-anchor="middle" x="313" y="-277.3" font-family="monospace" font-size="14.00" fill="#000000">awslogs</text>
</g>
<!-- awslogs&#45;&gt;log_files -->
<g id="edge13" class="edge">
<title>awslogs&#45;&gt;log_files</title>
<path fill="none" stroke="#000000" stroke-dasharray="5,2" d="M280.7002,-262.8314C264.1766,-253.5368 243.8814,-242.1208 226.2393,-232.1971"/>
<polygon fill="#000000" stroke="#000000" points="227.7212,-229.015 217.2895,-227.1628 224.2893,-235.116 227.7212,-229.015"/>
</g>
<!-- cloudwatch -->
<g id="node15" class="node">
<title>cloudwatch</title>
<polygon fill="none" stroke="#000000" points="498,-227 366,-227 366,-191 498,-191 498,-227"/>
<text text-anchor="middle" x="432" y="-205.3" font-family="monospace" font-size="14.00" fill="#000000">AWS CloudWatch</text>
</g>
<!-- awslogs&#45;&gt;cloudwatch -->
<g id="edge14" class="edge">
<title>awslogs&#45;&gt;cloudwatch</title>
<path fill="none" stroke="#000000" d="M343.0287,-262.8314C358.2496,-253.6221 376.9128,-242.3301 393.2083,-232.4706"/>
<polygon fill="#000000" stroke="#000000" points="395.2369,-235.3341 401.9809,-227.1628 391.6132,-229.345 395.2369,-235.3341"/>
</g>
<!-- cursor -->
<g id="node7" class="node">
<title>cursor</title>
<polygon fill="#ffffff" stroke="#ffffff" points="213,-443 147,-443 147,-407 213,-407 213,-443"/>
<text text-anchor="middle" x="180" y="-421.3" font-family="monospace" font-size="14.00" fill="#000000">cursor</text>
</g>
<!-- fetcher -->
<g id="node8" class="node">
<title>fetcher</title>
<polygon fill="#ffffff" stroke="#ffffff" points="305,-443 231,-443 231,-407 305,-407 305,-443"/>
<text text-anchor="middle" x="268" y="-421.3" font-family="monospace" font-size="14.00" fill="#000000">fetcher</text>
</g>
<!-- fetcher&#45;&gt;director -->
<g id="edge6" class="edge">
<title>fetcher&#45;&gt;director</title>
<path fill="none" stroke="#000000" stroke-dasharray="5,2" d="M258.6633,-406.8314C254.5757,-398.8771 249.6896,-389.369 245.1691,-380.5723"/>
<polygon fill="#000000" stroke="#000000" points="248.1461,-378.7078 240.4624,-371.4133 241.9201,-381.9074 248.1461,-378.7078"/>
</g>
<!-- shipper -->
<g id="node9" class="node">
<title>shipper</title>
<polygon fill="#ffffff" stroke="#ffffff" points="263,-515 189,-515 189,-479 263,-479 263,-515"/>
<text text-anchor="middle" x="226" y="-493.3" font-family="monospace" font-size="14.00" fill="#000000">shipper</text>
</g>
<!-- shipper&#45;&gt;cursor -->
<g id="edge2" class="edge">
<title>shipper&#45;&gt;cursor</title>
<path fill="none" stroke="#000000" stroke-dasharray="5,2" d="M208.4399,-478.8314C202.5205,-470.7925 196.1643,-461.1666 190.8651,-452.2918"/>
<polygon fill="#000000" stroke="#000000" points="193.7905,-450.3567 185.788,-443.4133 187.7138,-453.8316 193.7905,-450.3567"/>
</g>
<!-- shipper&#45;&gt;cursor -->
<g id="edge3" class="edge">
<title>shipper&#45;&gt;cursor</title>
<path fill="none" stroke="#000000" d="M220.3447,-478.8314C215.9005,-470.6232 209.7976,-460.7606 203.6261,-451.7323"/>
<polygon fill="#000000" stroke="#000000" points="206.3731,-449.555 197.74,-443.4133 200.6588,-453.5981 206.3731,-449.555"/>
</g>
<!-- shipper&#45;&gt;fetcher -->
<g id="edge1" class="edge">
<title>shipper&#45;&gt;fetcher</title>
<path fill="none" stroke="#000000" stroke-dasharray="5,2" d="M236.5984,-478.8314C241.2877,-470.7925 246.9028,-461.1666 252.0798,-452.2918"/>
<polygon fill="#000000" stroke="#000000" points="255.2434,-453.8146 257.2589,-443.4133 249.1969,-450.2875 255.2434,-453.8146"/>
</g>
<!-- hec -->
<g id="node10" class="node">
<title>hec</title>
<polygon fill="none" stroke="#000000" points="575.5,-155 476.5,-155 476.5,-119 575.5,-119 575.5,-155"/>
<text text-anchor="middle" x="526" y="-133.3" font-family="monospace" font-size="14.00" fill="#000000">Splunk HEC</text>
</g>
<!-- shipper&#45;&gt;hec -->
<g id="edge12" class="edge">
<title>shipper&#45;&gt;hec</title>
<path fill="none" stroke="#000000" d="M263.0868,-487.5556C343.352,-466.0277 526,-410.7004 526,-353 526,-353 526,-353 526,-281 526,-240.876 526,-194.4631 526,-165.4177"/>
<polygon fill="#000000" stroke="#000000" points="529.5001,-165.1853 526,-155.1854 522.5001,-165.1854 529.5001,-165.1853"/>
</g>
<!-- splunk -->
<g id="node12" class="node">
<title>splunk</title>
<polygon fill="none" stroke="#000000" points="525,-75 445,-75 445,-39 525,-39 525,-75"/>
<text text-anchor="middle" x="485" y="-55.1" font-family="monospace" font-size="8.00" fill="#000000">Splunk Cloud</text>
</g>
<!-- hec&#45;&gt;splunk -->
<g id="edge16" class="edge">
<title>hec&#45;&gt;splunk</title>
<path fill="none" stroke="#000000" d="M516.6965,-118.8468C511.4544,-108.6183 504.8032,-95.6405 498.9487,-84.217"/>
<polygon fill="#000000" stroke="#000000" points="501.9424,-82.3844 494.2667,-75.0814 495.7129,-85.5771 501.9424,-82.3844"/>
</g>
<!-- csls -->
<g id="node11" class="node">
<title>csls</title>
<polygon fill="none" stroke="#000000" points="458,-155 404,-155 404,-119 458,-119 458,-155"/>
<text text-anchor="middle" x="431" y="-133.3" font-family="monospace" font-size="14.00" fill="#000000">CSLS</text>
</g>
<!-- csls&#45;&gt;splunk -->
<g id="edge17" class="edge">
<title>csls&#45;&gt;splunk</title>
<path fill="none" stroke="#000000" d="M443.2534,-118.8468C450.2958,-108.4137 459.2688,-95.1203 467.0899,-83.5335"/>
<polygon fill="#000000" stroke="#000000" points="470.1013,-85.3281 472.7951,-75.0814 464.2993,-81.4117 470.1013,-85.3281"/>
</g>
<!-- key -->
<g id="node14" class="node">
<title>key</title>
<polygon fill="none" stroke="#000000" points="139.5,-80 44.5,-80 44.5,-34 139.5,-34 139.5,-80"/>
<text text-anchor="start" x="55" y="-62.8" font-family="monospace" font-size="14.00" fill="#000000">read</text>
<text text-anchor="start" x="55" y="-43.8" font-family="monospace" font-size="14.00" fill="#000000">write/use</text>
</g>
<!-- key&#45;&gt;key2 -->
<g id="edge4" class="edge">
<title>key:e&#45;&gt;key2:w</title>
<path fill="none" stroke="#000000" stroke-dasharray="5,2" d="M132,-67C148.9722,-67 155.602,-67 168.6958,-67"/>
<polygon fill="#000000" stroke="#000000" points="169,-70.5001 179,-67 169,-63.5001 169,-70.5001"/>
</g>
<!-- key&#45;&gt;key2 -->
<g id="edge5" class="edge">
<title>key:e&#45;&gt;key2:w</title>
<path fill="none" stroke="#000000" d="M132,-47C148.9722,-47 155.602,-47 168.6958,-47"/>
<polygon fill="#000000" stroke="#000000" points="169,-50.5001 179,-47 169,-43.5001 169,-50.5001"/>
</g>
<!-- cloudwatch&#45;&gt;csls -->
<g id="edge15" class="edge">
<title>cloudwatch&#45;&gt;csls</title>
<path fill="none" stroke="#000000" d="M431.7477,-190.8314C431.6407,-183.131 431.5135,-173.9743 431.3947,-165.4166"/>
<polygon fill="#000000" stroke="#000000" points="434.8944,-165.3637 431.2557,-155.4133 427.8951,-165.4609 434.8944,-165.3637"/>
</g>
</g>
</svg>
