<?xml version="1.0" encoding="UTF-8" standalone="no"?>
<!DOCTYPE svg PUBLIC "-//W3C//DTD SVG 1.1//EN"
 "http://www.w3.org/Graphics/SVG/1.1/DTD/svg11.dtd">
<!-- Generated by graphviz version 2.40.1 (20161225.0304)
 -->
<!-- Title: G Pages: 1 -->
<svg width="616pt" height="418pt"
 viewBox="0.00 0.00 616.00 418.40" xmlns="http://www.w3.org/2000/svg" xmlns:xlink="http://www.w3.org/1999/xlink">
<g id="graph0" class="graph" transform="scale(1 1) rotate(0) translate(4 414.4)">
<title>G</title>
<polygon fill="#ffffff" stroke="transparent" points="-4,4 -4,-414.4 612,-414.4 612,4 -4,4"/>
<g id="clust1" class="cluster">
<title>cluster_1</title>
<polygon fill="#d3d3d3" stroke="#d3d3d3" points="8,-248.8 8,-402.4 154,-402.4 154,-248.8 8,-248.8"/>
<text text-anchor="middle" x="81" y="-385.8" font-family="monospace" font-size="14.00" fill="#000000">App (paas&#45;auditor)</text>
</g>
<g id="clust2" class="cluster">
<title>cluster_2</title>
<polygon fill="#d3d3d3" stroke="#d3d3d3" points="162,-176.8 162,-325.6 312,-325.6 312,-176.8 162,-176.8"/>
<text text-anchor="middle" x="237" y="-309" font-family="monospace" font-size="14.00" fill="#000000">VM (api)</text>
</g>
<g id="clust3" class="cluster">
<title>cluster_3</title>
<polygon fill="#d3d3d3" stroke="#d3d3d3" points="450,-176.8 450,-325.6 600,-325.6 600,-176.8 450,-176.8"/>
<text text-anchor="middle" x="525" y="-309" font-family="monospace" font-size="14.00" fill="#000000">VM (uaa)</text>
</g>
<g id="clust4" class="cluster">
<title>cluster_4</title>
<polygon fill="none" stroke="#000000" points="159,-8 159,-156.8 335,-156.8 335,-8 159,-8"/>
<text text-anchor="middle" x="247" y="-16.2" font-family="monospace" font-size="14.00" fill="#000000">Managed by Cyber</text>
</g>
<!-- shipper -->
<g id="node1" class="node">
<title>shipper</title>
<polygon fill="#ffffff" stroke="#ffffff" points="73.7108,-369.6 16.2892,-369.6 16.2892,-333.6 73.7108,-333.6 73.7108,-369.6"/>
<text text-anchor="middle" x="45" y="-347.4" font-family="monospace" font-size="14.00" fill="#000000">shipper</text>
</g>
<!-- db -->
<g id="node3" class="node">
<title>db</title>
<polygon fill="#ffffff" stroke="#ffffff" points="90.3177,-292.8 15.6823,-292.8 15.6823,-256.8 90.3177,-256.8 90.3177,-292.8"/>
<text text-anchor="middle" x="53" y="-270.6" font-family="monospace" font-size="14.00" fill="#000000">auditor&#45;db</text>
</g>
<!-- shipper&#45;&gt;db -->
<g id="edge1" class="edge">
<title>shipper&#45;&gt;db</title>
<path fill="none" stroke="#000000" stroke-dasharray="5,2" d="M41.056,-333.3995C41.0986,-324.3132 42.0342,-313.1176 43.5354,-302.9549"/>
<polygon fill="#000000" stroke="#000000" points="47.0241,-303.322 45.2909,-292.8699 40.1278,-302.1215 47.0241,-303.322"/>
</g>
<!-- shipper&#45;&gt;db -->
<g id="edge2" class="edge">
<title>shipper&#45;&gt;db</title>
<path fill="none" stroke="#000000" d="M52.7358,-333.3995C54.5861,-324.3132 55.9829,-313.1176 56.599,-302.9549"/>
<polygon fill="#000000" stroke="#000000" points="60.0999,-302.9839 56.9446,-292.8699 53.104,-302.7441 60.0999,-302.9839"/>
</g>
<!-- hec -->
<g id="node10" class="node">
<title>hec</title>
<polygon fill="none" stroke="#000000" points="254.6692,-148.8 167.3308,-148.8 167.3308,-112.8 254.6692,-112.8 254.6692,-148.8"/>
<text text-anchor="middle" x="211" y="-126.6" font-family="monospace" font-size="14.00" fill="#000000">Splunk HEC</text>
</g>
<!-- shipper&#45;&gt;hec -->
<g id="edge9" class="edge">
<title>shipper&#45;&gt;hec</title>
<path fill="none" stroke="#000000" d="M73.7653,-338.0151C86.3706,-332.0159 98.4638,-326.1759 99,-325.6 147.482,-273.5354 116.8529,-234.8357 158,-176.8 163.4855,-169.063 170.5355,-161.778 177.6913,-155.3855"/>
<polygon fill="#000000" stroke="#000000" points="180.0683,-157.9589 185.4287,-148.8201 175.5393,-152.6214 180.0683,-157.9589"/>
</g>
<!-- fetcher -->
<g id="node2" class="node">
<title>fetcher</title>
<polygon fill="#ffffff" stroke="#ffffff" points="146.3558,-369.6 91.6442,-369.6 91.6442,-333.6 146.3558,-333.6 146.3558,-369.6"/>
<text text-anchor="middle" x="119" y="-347.4" font-family="monospace" font-size="14.00" fill="#000000">fetcher</text>
</g>
<!-- fetcher&#45;&gt;db -->
<g id="edge3" class="edge">
<title>fetcher&#45;&gt;db</title>
<path fill="none" stroke="#000000" d="M103.3589,-333.3995C94.9751,-323.6437 84.5015,-311.4563 75.2806,-300.7265"/>
<polygon fill="#000000" stroke="#000000" points="77.701,-298.1729 68.5288,-292.8699 72.392,-302.7353 77.701,-298.1729"/>
</g>
<!-- cc_api -->
<g id="node4" class="node">
<title>cc_api</title>
<polygon fill="#ffffff" stroke="#ffffff" points="224,-292.8 170,-292.8 170,-256.8 224,-256.8 224,-292.8"/>
<text text-anchor="middle" x="197" y="-270.6" font-family="monospace" font-size="14.00" fill="#000000">CC</text>
</g>
<!-- fetcher&#45;&gt;cc_api -->
<g id="edge8" class="edge">
<title>fetcher&#45;&gt;cc_api</title>
<path fill="none" stroke="#000000" stroke-dasharray="5,2" d="M146.7156,-334.7852C150.6662,-331.922 154.5531,-328.8242 158,-325.6 165.7141,-318.3843 173.0736,-309.5283 179.2794,-301.2431"/>
<polygon fill="#000000" stroke="#000000" points="182.2806,-303.0653 185.2953,-292.9084 176.6047,-298.9684 182.2806,-303.0653"/>
</g>
<!-- cc_log_files -->
<g id="node6" class="node">
<title>cc_log_files</title>
<polygon fill="#ffffff" stroke="#ffffff" points="269.1538,-220.8 202.8462,-220.8 202.8462,-184.8 269.1538,-184.8 269.1538,-220.8"/>
<text text-anchor="middle" x="236" y="-198.6" font-family="monospace" font-size="14.00" fill="#000000">Log files</text>
</g>
<!-- cc_api&#45;&gt;cc_log_files -->
<g id="edge5" class="edge">
<title>cc_api&#45;&gt;cc_log_files</title>
<path fill="none" stroke="#000000" d="M206.8413,-256.6314C211.1957,-248.5925 216.4098,-238.9666 221.2169,-230.0918"/>
<polygon fill="#000000" stroke="#000000" points="224.3408,-231.6732 226.0261,-221.2133 218.1857,-228.3392 224.3408,-231.6732"/>
</g>
<!-- cc_awslogs -->
<g id="node5" class="node">
<title>cc_awslogs</title>
<polygon fill="#ffffff" stroke="#ffffff" points="303.6011,-292.8 242.3989,-292.8 242.3989,-256.8 303.6011,-256.8 303.6011,-292.8"/>
<text text-anchor="middle" x="273" y="-270.6" font-family="monospace" font-size="14.00" fill="#000000">awslogs</text>
</g>
<!-- cc_awslogs&#45;&gt;cc_log_files -->
<g id="edge4" class="edge">
<title>cc_awslogs&#45;&gt;cc_log_files</title>
<path fill="none" stroke="#000000" stroke-dasharray="5,2" d="M263.6633,-256.6314C259.5757,-248.6771 254.6896,-239.169 250.1691,-230.3723"/>
<polygon fill="#000000" stroke="#000000" points="253.1461,-228.5078 245.4624,-221.2133 246.9201,-231.7074 253.1461,-228.5078"/>
</g>
<!-- cloudwatch -->
<g id="node13" class="node">
<title>cloudwatch</title>
<polygon fill="none" stroke="#000000" points="441.866,-220.8 320.134,-220.8 320.134,-184.8 441.866,-184.8 441.866,-220.8"/>
<text text-anchor="middle" x="381" y="-198.6" font-family="monospace" font-size="14.00" fill="#000000">AWS CloudWatch</text>
</g>
<!-- cc_awslogs&#45;&gt;cloudwatch -->
<g id="edge13" class="edge">
<title>cc_awslogs&#45;&gt;cloudwatch</title>
<path fill="none" stroke="#000000" d="M300.253,-256.6314C313.9389,-247.5074 330.6915,-236.339 345.3827,-226.5449"/>
<polygon fill="#000000" stroke="#000000" points="347.3767,-229.4221 353.7558,-220.9628 343.4938,-223.5977 347.3767,-229.4221"/>
</g>
<!-- uaa_api -->
<g id="node7" class="node">
<title>uaa_api</title>
<polygon fill="#ffffff" stroke="#ffffff" points="592,-292.8 538,-292.8 538,-256.8 592,-256.8 592,-292.8"/>
<text text-anchor="middle" x="565" y="-270.6" font-family="monospace" font-size="14.00" fill="#000000">UAA</text>
</g>
<!-- uaa_log_files -->
<g id="node9" class="node">
<title>uaa_log_files</title>
<polygon fill="#ffffff" stroke="#ffffff" points="559.1538,-220.8 492.8462,-220.8 492.8462,-184.8 559.1538,-184.8 559.1538,-220.8"/>
<text text-anchor="middle" x="526" y="-198.6" font-family="monospace" font-size="14.00" fill="#000000">Log files</text>
</g>
<!-- uaa_api&#45;&gt;uaa_log_files -->
<g id="edge7" class="edge">
<title>uaa_api&#45;&gt;uaa_log_files</title>
<path fill="none" stroke="#000000" d="M555.1587,-256.6314C550.8043,-248.5925 545.5902,-238.9666 540.7831,-230.0918"/>
<polygon fill="#000000" stroke="#000000" points="543.8143,-228.3392 535.9739,-221.2133 537.6592,-231.6732 543.8143,-228.3392"/>
</g>
<!-- uaa_awslogs -->
<g id="node8" class="node">
<title>uaa_awslogs</title>
<polygon fill="#ffffff" stroke="#ffffff" points="519.6011,-292.8 458.3989,-292.8 458.3989,-256.8 519.6011,-256.8 519.6011,-292.8"/>
<text text-anchor="middle" x="489" y="-270.6" font-family="monospace" font-size="14.00" fill="#000000">awslogs</text>
</g>
<!-- uaa_awslogs&#45;&gt;uaa_log_files -->
<g id="edge6" class="edge">
<title>uaa_awslogs&#45;&gt;uaa_log_files</title>
<path fill="none" stroke="#000000" stroke-dasharray="5,2" d="M498.3367,-256.6314C502.4243,-248.6771 507.3104,-239.169 511.8309,-230.3723"/>
<polygon fill="#000000" stroke="#000000" points="515.0799,-231.7074 516.5376,-221.2133 508.8539,-228.5078 515.0799,-231.7074"/>
</g>
<!-- uaa_awslogs&#45;&gt;cloudwatch -->
<g id="edge14" class="edge">
<title>uaa_awslogs&#45;&gt;cloudwatch</title>
<path fill="none" stroke="#000000" d="M461.747,-256.6314C448.0611,-247.5074 431.3085,-236.339 416.6173,-226.5449"/>
<polygon fill="#000000" stroke="#000000" points="418.5062,-223.5977 408.2442,-220.9628 414.6233,-229.4221 418.5062,-223.5977"/>
</g>
<!-- splunk -->
<g id="node12" class="node">
<title>splunk</title>
<polygon fill="none" stroke="#000000" points="284.2292,-76.8 223.7708,-76.8 223.7708,-40.8 284.2292,-40.8 284.2292,-76.8"/>
<text text-anchor="middle" x="254" y="-56.4" font-family="monospace" font-size="8.00" fill="#000000">Splunk Cloud</text>
</g>
<!-- hec&#45;&gt;splunk -->
<g id="edge10" class="edge">
<title>hec&#45;&gt;splunk</title>
<path fill="none" stroke="#000000" d="M221.8507,-112.6314C226.7023,-104.5079 232.5217,-94.7637 237.868,-85.8118"/>
<polygon fill="#000000" stroke="#000000" points="240.8806,-87.5933 243.0032,-77.2133 234.8708,-84.0041 240.8806,-87.5933"/>
</g>
<!-- csls -->
<g id="node11" class="node">
<title>csls</title>
<polygon fill="none" stroke="#000000" points="327,-148.8 273,-148.8 273,-112.8 327,-112.8 327,-148.8"/>
<text text-anchor="middle" x="300" y="-126.6" font-family="monospace" font-size="14.00" fill="#000000">CSLS</text>
</g>
<!-- csls&#45;&gt;splunk -->
<g id="edge11" class="edge">
<title>csls&#45;&gt;splunk</title>
<path fill="none" stroke="#000000" d="M288.3923,-112.6314C283.2022,-104.5079 276.9768,-94.7637 271.2575,-85.8118"/>
<polygon fill="#000000" stroke="#000000" points="274.0974,-83.7559 265.764,-77.2133 268.1985,-87.5246 274.0974,-83.7559"/>
</g>
<!-- cloudwatch&#45;&gt;csls -->
<g id="edge12" class="edge">
<title>cloudwatch&#45;&gt;csls</title>
<path fill="none" stroke="#000000" d="M360.5603,-184.6314C350.6795,-175.8485 338.6676,-165.1712 327.955,-155.6489"/>
<polygon fill="#000000" stroke="#000000" points="330.2326,-152.9906 320.4332,-148.9628 325.582,-158.2224 330.2326,-152.9906"/>
</g>
</g>
</svg>