<?xml version="1.0" encoding="UTF-8" standalone="no"?>
<!DOCTYPE svg PUBLIC "-//W3C//DTD SVG 1.1//EN"
 "http://www.w3.org/Graphics/SVG/1.1/DTD/svg11.dtd">
<!-- Generated by graphviz version 2.40.1 (20161225.0304)
 -->
<!-- Title: G Pages: 1 -->
<svg width="316pt" height="306pt"
 viewBox="0.00 0.00 316.00 305.60" xmlns="http://www.w3.org/2000/svg" xmlns:xlink="http://www.w3.org/1999/xlink">
<g id="graph0" class="graph" transform="scale(1 1) rotate(0) translate(4 301.6)">
<title>G</title>
<polygon fill="#ffffff" stroke="transparent" points="-4,4 -4,-301.6 312,-301.6 312,4 -4,4"/>
<g id="clust1" class="cluster">
<title>cluster_0</title>
<polygon fill="#d3d3d3" stroke="#d3d3d3" points="8,-8 8,-241.6 300,-241.6 300,-8 8,-8"/>
<text text-anchor="middle" x="26.1073" y="-16.2" font-family="monospace" font-size="14.00" fill="#000000">vpc</text>
</g>
<g id="clust2" class="cluster">
<title>cluster_1</title>
<polygon fill="#c0c0c0" stroke="#c0c0c0" points="78,-84.8 78,-233.6 292,-233.6 292,-84.8 78,-84.8"/>
<text text-anchor="middle" x="104.6676" y="-93" font-family="monospace" font-size="14.00" fill="#000000">bosh/0</text>
</g>
<!-- rds -->
<g id="node1" class="node">
<title>rds</title>
<polygon fill="#ffffff" stroke="#ffffff" points="212,-76.8 158,-76.8 158,-40.8 212,-40.8 212,-76.8"/>
<text text-anchor="middle" x="185" y="-56.85" font-family="monospace" font-size="6.50" fill="#000000">RDS Postgres</text>
</g>
<!-- alb -->
<g id="node2" class="node">
<title>alb</title>
<polygon fill="#ffffff" stroke="#ffffff" points="70,-225.6 16,-225.6 16,-189.6 70,-189.6 70,-225.6"/>
<text text-anchor="middle" x="43" y="-205.65" font-family="monospace" font-size="6.50" fill="#000000">AWS ALB</text>
</g>
<!-- uaa -->
<g id="node4" class="node">
<title>uaa</title>
<polygon fill="#ffffff" stroke="#ffffff" points="140,-153.6 86,-153.6 86,-117.6 140,-117.6 140,-153.6"/>
<text text-anchor="middle" x="113" y="-133.65" font-family="monospace" font-size="6.50" fill="#000000">UAA</text>
</g>
<!-- alb&#45;&gt;uaa -->
<g id="edge6" class="edge">
<title>alb&#45;&gt;uaa</title>
<path fill="none" stroke="#000000" d="M60.664,-189.4314C68.9732,-180.8848 79.0264,-170.5443 88.0918,-161.2198"/>
<polygon fill="#000000" stroke="#000000" points="90.6369,-163.623 95.0982,-154.0133 85.6179,-158.7435 90.6369,-163.623"/>
</g>
<!-- credhub -->
<g id="node3" class="node">
<title>credhub</title>
<polygon fill="#ffffff" stroke="#ffffff" points="284,-153.6 230,-153.6 230,-117.6 284,-117.6 284,-153.6"/>
<text text-anchor="middle" x="257" y="-133.65" font-family="monospace" font-size="6.50" fill="#000000">CredHub</text>
</g>
<!-- credhub&#45;&gt;rds -->
<g id="edge11" class="edge">
<title>credhub&#45;&gt;rds</title>
<path fill="none" stroke="#000000" d="M246.3047,-117.5706C239.7397,-107.3274 230.7397,-94.6274 221,-84.8 220.576,-84.3722 220.1444,-83.9463 219.706,-83.5226"/>
<polygon fill="#000000" stroke="#000000" points="221.9719,-80.8545 212.1454,-76.8933 217.3569,-86.1178 221.9719,-80.8545"/>
</g>
<!-- credhub&#45;&gt;uaa -->
<g id="edge2" class="edge">
<title>credhub&#45;&gt;uaa</title>
<path fill="none" stroke="#000000" d="M239.9185,-153.8173C232.1538,-160.7981 222.385,-167.9571 212,-171.6 189.3529,-179.5442 180.6471,-179.5442 158,-171.6 150.8603,-169.0955 144.0119,-164.9291 137.9057,-160.3013"/>
<polygon fill="#000000" stroke="#000000" points="140.0145,-157.5032 130.0815,-153.8173 135.5479,-162.893 140.0145,-157.5032"/>
</g>
<!-- uaa&#45;&gt;rds -->
<g id="edge10" class="edge">
<title>uaa&#45;&gt;rds</title>
<path fill="none" stroke="#000000" d="M123.6953,-117.5706C130.2603,-107.3274 139.2603,-94.6274 149,-84.8 149.424,-84.3722 149.8556,-83.9463 150.294,-83.5226"/>
<polygon fill="#000000" stroke="#000000" points="152.6431,-86.1178 157.8546,-76.8933 148.0281,-80.8545 152.6431,-86.1178"/>
</g>
<!-- director -->
<g id="node5" class="node">
<title>director</title>
<polygon fill="#ffffff" stroke="#ffffff" points="212,-153.6 158,-153.6 158,-117.6 212,-117.6 212,-153.6"/>
<text text-anchor="middle" x="185" y="-133.65" font-family="monospace" font-size="6.50" fill="#000000">Director</text>
</g>
<!-- director&#45;&gt;rds -->
<g id="edge9" class="edge">
<title>director&#45;&gt;rds</title>
<path fill="none" stroke="#000000" d="M185,-117.3995C185,-108.3132 185,-97.1176 185,-86.9549"/>
<polygon fill="#000000" stroke="#000000" points="188.5001,-86.8698 185,-76.8699 181.5001,-86.8699 188.5001,-86.8698"/>
</g>
<!-- director&#45;&gt;uaa -->
<g id="edge1" class="edge">
<title>director&#45;&gt;uaa</title>
<path fill="none" stroke="#000000" d="M157.7495,-135.6C155.293,-135.6 152.8366,-135.6 150.3801,-135.6"/>
<polygon fill="#000000" stroke="#000000" points="150.2813,-132.1001 140.2813,-135.6 150.2812,-139.1001 150.2813,-132.1001"/>
</g>
<!-- sshd -->
<g id="node6" class="node">
<title>sshd</title>
<polygon fill="#ffffff" stroke="#ffffff" points="230,-225.6 176,-225.6 176,-189.6 230,-189.6 230,-225.6"/>
<text text-anchor="middle" x="203" y="-205.65" font-family="monospace" font-size="6.50" fill="#000000">SSH Daemon</text>
</g>
<!-- sshd&#45;&gt;credhub -->
<g id="edge7" class="edge">
<title>sshd&#45;&gt;credhub</title>
<path fill="none" stroke="#000000" stroke-dasharray="5,2" d="M216.6265,-189.4314C222.846,-181.1386 230.3322,-171.157 237.16,-162.0533"/>
<polygon fill="#000000" stroke="#000000" points="239.99,-164.1133 243.19,-154.0133 234.39,-159.9133 239.99,-164.1133"/>
</g>
<!-- sshd&#45;&gt;director -->
<g id="edge8" class="edge">
<title>sshd&#45;&gt;director</title>
<path fill="none" stroke="#000000" stroke-dasharray="5,2" d="M198.4578,-189.4314C196.5116,-181.6463 194.1932,-172.3729 192.0337,-163.7347"/>
<polygon fill="#000000" stroke="#000000" points="195.4242,-162.8658 189.6033,-154.0133 188.6332,-164.5636 195.4242,-162.8658"/>
</g>
<!-- uaa_login -->
<g id="node7" class="node">
<title>uaa_login</title>
<polygon fill="none" stroke="#000000" points="70,-297.6 16,-297.6 16,-261.6 70,-261.6 70,-297.6"/>
<text text-anchor="middle" x="43" y="-281.55" font-family="monospace" font-size="6.50" fill="#000000">SSO</text>
<text text-anchor="middle" x="43" y="-273.75" font-family="monospace" font-size="6.50" fill="#000000">via UAA</text>
</g>
<!-- uaa_login&#45;&gt;alb -->
<g id="edge3" class="edge">
<title>uaa_login&#45;&gt;alb</title>
<path fill="none" stroke="#000000" d="M43,-261.4314C43,-253.731 43,-244.5743 43,-236.0166"/>
<polygon fill="#000000" stroke="#000000" points="46.5001,-236.0132 43,-226.0133 39.5001,-236.0133 46.5001,-236.0132"/>
</g>
<!-- bosh_login -->
<g id="node8" class="node">
<title>bosh_login</title>
<polygon fill="none" stroke="#000000" points="177,-297.6 123,-297.6 123,-261.6 177,-261.6 177,-297.6"/>
<text text-anchor="middle" x="150" y="-277.65" font-family="monospace" font-size="6.50" fill="#000000">bosh login</text>
</g>
<!-- bosh_login&#45;&gt;sshd -->
<g id="edge4" class="edge">
<title>bosh_login&#45;&gt;sshd</title>
<path fill="none" stroke="#000000" d="M163.3741,-261.4314C169.4162,-253.2232 176.6763,-243.3606 183.3221,-234.3323"/>
<polygon fill="#000000" stroke="#000000" points="186.3363,-236.1415 189.4458,-226.0133 180.6989,-231.9918 186.3363,-236.1415"/>
</g>
<!-- credhub_login -->
<g id="node9" class="node">
<title>credhub_login</title>
<polygon fill="none" stroke="#000000" points="249,-297.6 195,-297.6 195,-261.6 249,-261.6 249,-297.6"/>
<text text-anchor="middle" x="222" y="-277.65" font-family="monospace" font-size="6.50" fill="#000000">credhub login</text>
</g>
<!-- credhub_login&#45;&gt;sshd -->
<g id="edge5" class="edge">
<title>credhub_login&#45;&gt;sshd</title>
<path fill="none" stroke="#000000" d="M217.2055,-261.4314C215.1511,-253.6463 212.704,-244.3729 210.4244,-235.7347"/>
<polygon fill="#000000" stroke="#000000" points="213.7948,-234.7892 207.8591,-226.0133 207.0265,-236.5753 213.7948,-234.7892"/>
</g>
</g>
</svg>